<?xml version="1.0" encoding="utf-8"?>
<!-- Generator: Adobe Illustrator 23.0.3, SVG Export Plug-In . SVG Version: 6.00 Build 0)  -->
<svg version="1.1" id="Isolation_Mode" xmlns="http://www.w3.org/2000/svg" xmlns:xlink="http://www.w3.org/1999/xlink" x="0px"
	 y="0px" viewBox="0 0 962.7 187.3" style="enable-background:new 0 0 962.7 187.3;" xml:space="preserve">
<style type="text/css">
	.st0{fill:#009CA6;enable-background:new    ;}
	.st1{fill:#53565A;}
</style>
<title>bamboonine-logo-horizontal-STRAP</title>
<path class="st0" d="M59.2,96.8c0,0-19.1-19,30.6-96.8C89.8,0,85.6,84,59.2,96.8z"/>
<path class="st0" d="M75,96.8c2-36.9,85-70.2,85-70.2S108.6,100.1,75,96.8z"/>
<path class="st0" d="M77,102.6c36.1-7.9,90.3,63.2,90.3,63.2S82.7,135.9,77,102.6z"/>
<path class="st1" d="M43.1,101.1c-9.9,0-19.4,3.4-27.1,9.6V77.8c0-4.4-3.6-8-8-8s-8,3.6-8,8v66.4c0,23.8,19.3,43.1,43.1,43.1
	s43.1-19.3,43.1-43.1S66.9,101.1,43.1,101.1L43.1,101.1z M43.1,171.3c-15,0-27.1-12.1-27.1-27.1s12.1-27.1,27.1-27.1
	s27.1,12.1,27.1,27.1l0,0C70.1,159.1,58,171.2,43.1,171.3L43.1,171.3z"/>
<path class="st1" d="M135.8,101.1c-23.8,0-43.1,19.2-43.1,43s19.2,43.1,43,43.1c9.9,0,19.5-3.4,27.2-9.6v1.6c0,4.4,3.6,8,8,8
	s8-3.6,8-8v-35.1C178.9,120.4,159.6,101.1,135.8,101.1z M135.8,171.3c-15,0-27.1-12.1-27.1-27.1s12.1-27.1,27.1-27.1
	s27.1,12.1,27.1,27.1l0,0C162.9,159.2,150.8,171.3,135.8,171.3z"/>
<path class="st1" d="M283.8,101.1c-11.6,0-22.5,5.3-29.6,14.5c-12.8-16.4-36.4-19.3-52.8-6.5c-9.1,7.1-14.5,18.1-14.5,29.7v40.6
	c0,4.4,3.6,8,8,8s8-3.6,8-8v-40.6c-0.3-11.9,9.2-21.8,21.1-22.1c11.9-0.3,21.8,9.2,22.1,21.1l0,0c0,0.3,0,0.6,0,0.9v40.6
	c0,4.4,3.6,8,8,8c4.4,0,8-3.6,8-8v-40.6c-0.5-11.9,8.7-22,20.7-22.5s22,8.7,22.5,20.7l0,0c0,0.6,0,1.2,0,1.9v40.6c0,4.4,3.6,8,8,8
	s8-3.6,8-8v-40.6C321.3,118,304.5,101.2,283.8,101.1z"/>
<path class="st1" d="M372.5,101.1c-9.9,0-19.4,3.4-27.1,9.6V77.8c0-4.4-3.6-8-8-8s-8,3.6-8,8v66.4c0,23.8,19.3,43.1,43.1,43.1
	c23.8,0,43.1-19.3,43.1-43.1S396.3,101.1,372.5,101.1L372.5,101.1z M372.5,171.3c-15,0-27.1-12.1-27.1-27.1s12.1-27.1,27.1-27.1
	s27.1,12.1,27.1,27.1l0,0l0,0C399.6,159.1,387.5,171.2,372.5,171.3L372.5,171.3z"/>
<path class="st1" d="M465.9,101.1c-23.8,0-43.1,19.3-43,43.1s19.3,43.1,43.1,43c23.8,0,43-19.3,43-43.1l0,0
	C509,120.4,489.7,101.1,465.9,101.1z M465.9,171.3c-15,0-27.1-12.2-27-27.1s12.2-27.1,27.1-27c14.9,0,27,12.1,27,27.1
	C493,159.2,480.9,171.3,465.9,171.3L465.9,171.3z"/>
<path class="st1" d="M559,101.1c-23.8,0-43.1,19.3-43.1,43.1s19.3,43.1,43.1,43.1s43.1-19.3,43.1-43.1l0,0
	C602.1,120.4,582.8,101.1,559,101.1z M559,171.3c-15,0-27.1-12.1-27.1-27.1s12.1-27.1,27.1-27.1s27.1,12.1,27.1,27.1
	S574,171.3,559,171.3L559,171.3z"/>
<path class="st1" d="M919.5,101.1c-23.8,0.4-42.8,19.9-42.4,43.7c0.4,23.3,19.1,42.1,42.4,42.4c12.7,0,21.9-3.1,31.8-10.7
	c3.5-2.7,4.2-7.7,1.5-11.2c-2.6-3.5-7.5-4.2-11-1.7l-0.2,0.2c-7.1,5.5-12.9,7.4-22.1,7.4c-11.9,0-22.4-7.8-25.9-19.1h61
	c4.4,0,8-3.6,8-8C962.6,120.4,943.3,101.1,919.5,101.1z M893.7,136.2c4.4-14.3,19.6-22.3,33.9-17.9c8.5,2.6,15.2,9.3,17.9,17.9
	H893.7z"/>
<path class="st1" d="M700.8,101.1c-23.8,0-43.1,19.3-43.1,43.1v35.1c0,4.4,3.6,8,8,8s8-3.6,8-8v-35.1c0.3-15,12.6-26.9,27.6-26.6
	c14.6,0.3,26.3,12,26.6,26.6v35.1c0,4.4,3.6,8,8,8s8-3.6,8-8v-35.1C743.8,120.4,724.6,101.1,700.8,101.1z"/>
<path class="st1" d="M825.4,101.1c-23.8,0-43.1,19.3-43.1,43.1v35.1c0,4.4,3.6,8,8,8s8-3.6,8-8v-35.1c0-15,12.2-27.1,27.1-27.1
	c14.9,0,27,12.1,27.1,27.1v35.1c0,4.4,3.6,8,8,8s8-3.6,8-8v-35.1C868.4,120.4,849.1,101.1,825.4,101.1z"/>
<path class="st1" d="M763.2,101.1c-4.4,0-8,3.6-8,8v70.2c0,4.4,3.6,8,8,8s8-3.6,8-8v-70.2C771.2,104.7,767.7,101.1,763.2,101.1z"/>
<circle class="st1" cx="763.3" cy="86.7" r="9.4"/>
</svg>
